<?xml version="1.0" encoding="utf-8"?>
<!-- Uploaded to: SVG Repo, www.svgrepo.com, Generator: SVG Repo Mixer Tools -->
<svg width="800px" height="800px" viewBox="0 0 1024 1024" class="icon"  version="1.1" xmlns="http://www.w3.org/2000/svg"><path d="M130.307 227.97h748.911v568.098H130.307z" fill="#ED8F27" /><path d="M879.218 806.068H130.307l-10-10V227.971l10-10h748.911l10 10v568.098l-10 9.999z m-738.911-20h728.911V237.971H140.307v548.097z" fill="#300604" /><path d="M182.067 278.597h650.094v457.616H182.067z" fill="#FCE3C3" /><path d="M647.317 851.206l48.691-28.271 34.106 36.642-2.786-162.345-82.199-4.633z" fill="#228E9D" /><path d="M696.205 658.662m-51.076 0a51.076 51.076 0 1 0 102.152 0 51.076 51.076 0 1 0-102.152 0Z" fill="#B12800" /><path d="M135.602 800.025a9.648 9.648 0 0 1-9.653-9.653V232.795a9.647 9.647 0 0 1 5.958-8.917 9.66 9.66 0 0 1 10.52 2.093l44.506 44.506a9.651 9.651 0 0 1 2.828 6.825v468.565a9.651 9.651 0 0 1-2.828 6.825l-44.506 44.506a9.65 9.65 0 0 1-6.825 2.827z m9.653-543.927V767.07l25.2-25.201V281.298l-25.2-25.2zM870.3 800.025a9.65 9.65 0 0 1-6.825-2.828l-44.506-44.506a9.651 9.651 0 0 1-2.828-6.825V277.301a9.651 9.651 0 0 1 2.828-6.825l44.506-44.506a9.648 9.648 0 0 1 10.52-2.093 9.646 9.646 0 0 1 5.958 8.917v557.578a9.646 9.646 0 0 1-9.653 9.653z m-34.853-58.156l25.2 25.201V256.098l-25.2 25.2v460.571z" fill="#300604" /><path d="M825.794 286.954H180.108a9.658 9.658 0 0 1-6.825-2.828l-44.506-44.506a9.654 9.654 0 0 1-2.093-10.52 9.66 9.66 0 0 1 8.917-5.958H870.3a9.652 9.652 0 0 1 6.824 16.478l-44.506 44.506a9.654 9.654 0 0 1-6.824 2.828z m-641.689-19.306h637.692l25.2-25.2H158.905l25.2 25.2zM656.969 800.025H135.602a9.653 9.653 0 0 1-6.824-16.477l44.506-44.506a9.656 9.656 0 0 1 6.825-2.828H656.97c5.329 0 9.653 4.321 9.653 9.653v44.506c-0.001 5.332-4.325 9.652-9.654 9.652zM158.905 780.72h488.412v-25.2H184.105l-25.2 25.2zM870.3 800.025H725.306c-5.329 0-9.653-4.32-9.653-9.653v-44.506c0-5.332 4.324-9.653 9.653-9.653h100.488a9.658 9.658 0 0 1 6.825 2.828l44.506 44.506a9.653 9.653 0 0 1-6.825 16.478zM734.959 780.72h112.039l-25.2-25.2H734.96v25.2z" fill="#300604" /><path d="M825.794 755.519H725.306c-5.329 0-9.653-4.321-9.653-9.653v-49.653a9.668 9.668 0 0 1 3.206-7.186c8.836-7.921 13.901-19.255 13.901-31.092 0-22.96-18.671-41.64-41.615-41.64-22.956 0-41.634 18.68-41.634 41.64a41.694 41.694 0 0 0 13.888 31.048 9.635 9.635 0 0 1 3.224 7.198v49.685c0 5.332-4.324 9.653-9.653 9.653H180.108c-5.329 0-9.653-4.321-9.653-9.653V277.301c0-5.332 4.324-9.653 9.653-9.653h645.685c5.329 0 9.653 4.321 9.653 9.653v468.565c0.001 5.333-4.323 9.653-9.652 9.653z m-90.835-19.305h81.182v-449.26h-626.38v449.26h457.555v-35.931a61.033 61.033 0 0 1-17.113-42.347c0-33.606 27.338-60.946 60.94-60.946 33.591 0 60.921 27.34 60.921 60.946 0 15.824-6.184 31.026-17.106 42.37v35.908z" fill="#300604" /><path d="M351.943 338.053h293.614v19.306H351.943zM246.648 510.679h501.357v19.306H246.648zM246.648 554.468h501.357v19.306H246.648zM246.648 648.283h130.753v19.306H246.648zM426.583 648.283h130.754v19.306H426.583zM680.856 718.011l-1.835-0.346c-1.345-0.279-2.2-0.465-2.992-0.691l5.329-18.558c0.34 0.1 0.717 0.167 1.081 0.242l1.973 0.38-3.556 18.973zM700.873 718.102l-2.401-19.155 5.48 18.558c-0.974 0.264-2.03 0.465-3.079 0.597z" fill="#300604" /><path d="M725.306 860.859a9.634 9.634 0 0 1-4.864-1.317l-29.298-17.094-29.31 17.097a9.653 9.653 0 1 1-14.517-8.34V696.182a9.654 9.654 0 0 1 16.101-7.183 40.115 40.115 0 0 0 9.143 6.175c1.672 0.873 3.325 1.568 5.273 2.231 0.873 0.301 1.728 0.568 2.595 0.795 0.302 0.057 0.591 0.122 0.848 0.195 0.415 0.113 0.88 0.204 1.345 0.302l1.791 0.342c4.393 0.707 8.918 0.741 13.706-0.041l3.167-0.669c0.924-0.223 1.929-0.474 2.872-0.826 5.606-1.876 10.451-4.698 14.737-8.506 2.847-2.52 6.913-3.145 10.363-1.587a9.652 9.652 0 0 1 5.7 8.805v154.993a9.655 9.655 0 0 1-4.845 8.371 9.66 9.66 0 0 1-4.807 1.28z m-58.684-147.121v120.663l19.658-11.469a9.655 9.655 0 0 1 9.728 0.003l19.645 11.463V713.753a59.866 59.866 0 0 1-5.052 1.942c-1.339 0.509-3.111 0.999-4.889 1.423l-4.261 0.893c-7.283 1.194-13.473 1.166-20.362 0.041l-2.067-0.387a55.936 55.936 0 0 1-2.432-0.544 10.192 10.192 0 0 1-0.578-0.125 53.317 53.317 0 0 1-4.456-1.335 58.645 58.645 0 0 1-4.934-1.923z" fill="#300604" /><path d="M691.144 718.894c-3.236 0-6.624-0.283-10.055-0.842l-2.067-0.387a50.222 50.222 0 0 1-2.464-0.55 9.445 9.445 0 0 1-0.766-0.176 111.37 111.37 0 0 1-3.406-1.015c-0.088-0.028-0.71-0.223-0.798-0.252a59.35 59.35 0 0 1-7.655-3.23 60.702 60.702 0 0 1-12.537-8.384 8.89 8.89 0 0 1-0.855-0.678 60.996 60.996 0 0 1-20.337-45.446c0-33.606 27.338-60.946 60.94-60.946 33.591 0 60.921 27.34 60.921 60.946 0 17.313-7.402 33.882-20.311 45.464-0.346 0.308-0.71 0.591-1.088 0.842-5.97 5.102-12.694 8.949-20.016 11.437-1.672 0.553-3.281 1.043-4.94 1.439l-2.143 0.481c-0.597 0.169-1.647 0.371-2.696 0.503a60.648 60.648 0 0 1-9.727 0.794z m-10.589-20.67c0.258 0.05 0.503 0.11 0.729 0.17 0.415 0.122 0.792 0.189 1.156 0.264l1.929 0.371c4.481 0.726 8.962 0.751 13.75-0.031 0.126-0.034 1.056-0.198 1.188-0.226l1.979-0.443c1.043-0.251 2.136-0.591 3.218-0.952 5.222-1.776 10.08-4.632 14.366-8.466 0.277-0.245 0.56-0.471 0.855-0.678 8.295-7.877 13.033-18.853 13.033-30.297 0-22.96-18.671-41.64-41.615-41.64-22.956 0-41.634 18.68-41.634 41.64a41.684 41.684 0 0 0 13.172 30.391c0.257 0.189 0.509 0.396 0.754 0.613a41.585 41.585 0 0 0 9.194 6.272 40.533 40.533 0 0 0 5.204 2.194c1.044 0.319 1.892 0.583 2.722 0.818z" fill="#300604" /><path d="M246.648 392.427v94.443l78.528-46.474zM343.431 392.427h47.583v94.443h-47.583z" fill="#B12800" /><path d="M463.544 439.907m-47.48 0a47.48 47.48 0 1 0 94.96 0 47.48 47.48 0 1 0-94.96 0Z" fill="#B12800" /><path d="M530.689 402.347h84.523v84.523h-84.523zM642.536 486.87l26.134-84.523 29.232 25.32 30.083-25.32 19.419 84.523z" fill="#B12800" /></svg>