<?xml version="1.0" encoding="utf-8"?>
<!-- Uploaded to: SVG Repo, www.svgrepo.com, Generator: SVG Repo Mixer Tools -->
<svg width="800px" height="800px" viewBox="0 0 1024 1024" class="icon"  version="1.1" xmlns="http://www.w3.org/2000/svg"><path d="M769.954 819.164V428.239H640.67v390.926c-0.658 3.571-1.154 7.199-1.154 10.95 0 34.756 29.458 62.931 65.796 62.931 36.337 0 65.796-28.175 65.796-62.931 0.001-3.752-0.495-7.38-1.154-10.951z" fill="#FCE3C3" /><path d="M705.312 905.545c-43.173 0-78.297-33.838-78.297-75.431 0-3.723 0.358-7.484 1.154-12.061V415.739h154.284v402.314c0.796 4.577 1.154 8.338 1.154 12.061 0.001 41.593-35.122 75.431-78.295 75.431zM653.17 440.739v379.567l-0.207 1.123c-0.655 3.555-0.947 6.233-0.947 8.685 0 27.808 23.909 50.431 53.297 50.431s53.296-22.623 53.296-50.431c0-2.451-0.292-5.13-0.947-8.685l-0.207-1.123V440.739H653.17z" fill="#300604" /><path d="M615.467 351.284h178.535v76.955H615.467z" fill="#FCE3C3" /><path d="M806.502 440.739H602.967V338.784h203.535v101.955z m-178.535-25h153.535v-51.955H627.967v51.955z" fill="#300604" /><path d="M539.795 471.496V371.292H424.363v100.203c-90.544 25.211-156.988 108.265-156.988 206.846 0 118.577 96.126 214.704 214.704 214.704 118.577 0 214.704-96.126 214.704-214.704 0-98.581-66.444-181.634-156.988-206.845z" fill="#FCE3C3" /><path d="M539.795 371.292v100.203c90.544 25.211 156.988 108.265 156.988 206.846 0 118.577-96.126 214.704-214.704 214.704s-214.704-96.126-214.704-214.704c0-98.581 66.444-181.635 156.988-206.846V371.292h115.432m0-25H424.363l-25 25v82.016a238.625 238.625 0 0 0-51.769 26.596 240.415 240.415 0 0 0-55.48 52.24c-15.809 20.512-28.11 43.271-36.562 67.644-8.743 25.214-13.176 51.643-13.176 78.554 0 32.349 6.341 63.743 18.847 93.311 12.074 28.547 29.354 54.179 51.36 76.185s47.638 39.286 76.185 51.36c29.568 12.506 60.963 18.847 93.311 18.847s63.743-6.341 93.311-18.847c28.547-12.074 54.179-29.354 76.185-51.36s39.286-47.638 51.36-76.185c12.506-29.568 18.847-60.962 18.847-93.311 0-26.911-4.433-53.341-13.176-78.554-8.452-24.373-20.753-47.132-36.562-67.644a240.415 240.415 0 0 0-55.48-52.24 238.625 238.625 0 0 0-51.769-26.596v-82.016l-25-25z" fill="#300604" /><path d="M385.116 297.416h193.926v73.877H385.116z" fill="#FCE3C3" /><path d="M591.542 383.792H372.616v-98.876h218.926v98.876z m-193.926-25h168.926v-48.876H397.616v48.876z" fill="#300604" /><path d="M323.488 678.342c0 87.588 71.003 158.592 158.591 158.592S640.67 765.929 640.67 678.342c0-9.723-1.009-19.196-2.684-28.436H326.172c-1.675 9.24-2.684 18.713-2.684 28.436z" fill="#B12800" /><path d="M482.078 846.934c-92.961 0-168.59-75.63-168.59-168.592 0-9.777 0.931-19.662 2.844-30.22l1.489-8.217h328.516l1.489 8.217c1.913 10.558 2.844 20.442 2.844 30.22 0 92.962-75.63 168.592-168.592 168.592zM334.725 659.905c-0.83 6.335-1.236 12.423-1.236 18.437 0 81.934 66.657 148.592 148.59 148.592 81.934 0 148.592-66.658 148.592-148.592 0-6.014-0.406-12.102-1.236-18.437h-294.71z" fill="#300604" /><path d="M502.079 627.552h-40l0.001-367.232c0.023-3.033 0.714-30.437 17.309-58.502 15.726-26.598 48.718-58.303 116.583-58.303 66.879 0 100.071 26.471 116.139 48.677 17.749 24.53 18.82 48.951 18.884 51.655l0.006 0.471V546.75h-40V244.817c-0.135-1.835-1.537-16.537-12.377-30.626-15.662-20.355-43.47-30.677-82.651-30.677-38.7 0-66.089 12.592-81.405 37.426-11.579 18.772-12.442 38.415-12.487 39.749v366.863zM342.136 614.94l-18.707-7.074c0.972-2.581 24.672-63.586 100.015-96.447l7.996 18.332c-67.279 29.344-89.091 84.634-89.304 85.189z" fill="#300604" /></svg>