<?xml version="1.0" encoding="utf-8"?>
<!-- Uploaded to: SVG Repo, www.svgrepo.com, Generator: SVG Repo Mixer Tools -->
<svg width="800px" height="800px" viewBox="0 0 1024 1024" class="icon"  version="1.1" xmlns="http://www.w3.org/2000/svg"><path d="M600.053 197.532h51.929v216.934h-51.929z" fill="#B12800" /><path d="M651.981 423.987h-51.929l-9.519-9.519V197.534l9.519-9.519h51.929l9.519 9.519v216.934l-9.519 9.519z m-42.409-19.039h32.89V207.053h-32.89v197.895z" fill="#B12800" /><path d="M345.504 479.26h51.929v335.675h-51.929z" fill="#ED8F27" /><path d="M397.432 824.456h-51.929l-9.519-9.519V479.262l9.519-9.519h51.929l9.519 9.519v335.674l-9.519 9.52z m-42.409-19.039h32.89V488.782h-32.89v316.635z" fill="#ED8F27" /><path d="M218.23 598.001h51.929v216.934H218.23z" fill="#B12800" /><path d="M270.161 824.456h-51.929l-9.519-9.519V598.003l9.519-9.519h51.929l9.519 9.519v216.934l-9.519 9.519z m-42.41-19.039h32.89V607.522h-32.89v197.895z" fill="#B12800" /><path d="M472.779 814.935h51.928v-82.382l-51.928-47.09z" fill="#FCE3C3" /><path d="M524.71 824.456h-51.929l-9.519-9.519V577.12l15.916-7.053L531.106 725.5l3.124-101.288v190.724l-9.52 9.52z m-42.41-19.039h32.891v-68.646L482.3 706.945v98.472z" fill="#FCE3C3" /><path d="M472.779 556.371v46.009l51.928 47.671v-93.68z" fill="#FCE3C3" /><path d="M518.271 657.065l-51.929-47.674-3.08-7.012v-46.008l9.519-9.519h51.929l9.519 9.519v93.682l-15.958 7.012z m-35.971-58.87l32.891 30.194V565.89H482.3v32.305z" fill="#FCE3C3" /><path d="M604.313 414.432h47.668l0.374 163.991 154.64 61.862 0.773 160.83-45.815 44.548H596.859v-40.246L474.839 689.49l36.916-44.72 88.298 74.449z" fill="#FCE3C3" /><path d="M727.328 438.909V608.76l51.927 21.637V438.909z" fill="#228E9D" /><path d="M775.591 639.185l-51.929-21.636-5.857-8.788V438.91l9.519-9.519h51.929l9.519 9.519v191.487l-13.181 8.788z m-38.747-36.77l32.89 13.703V448.43h-32.89v153.985z" fill="#228E9D" /><path d="M398.548 340.652h-19.039v-77.524h-77.524v-19.039h87.044l9.519 9.519z" fill="#300604" /><path d="M382.297 246.874l13.46 13.46L242.913 413.18l-13.46-13.461zM771.822 850.287l-13.461-13.461 39.888-39.89V648.624l-136.748-56.98v53.76h-19.039V423.987h-32.89v295.232l-15.958 7.013-81.92-71.626-26.873 33.001 121.627 106.217 3.124 7.054v44.786h-19.039v-40.569L465.342 695.648l-0.985-13.064 38.952-47.832 13.82-1.001 73.404 63.808V414.467l9.52-9.519h51.928l9.52 9.519v156.552L811.43 633.49l5.857 8.788v158.6l-2.789 6.73z" fill="#300604" /><path d="M570.842 845.663h236.926v43.277H570.842z" fill="#B12800" /><path d="M817.287 898.46H561.325v-62.315h255.962v62.315z m-236.923-19.039h217.885v-24.238H580.364v24.238z" fill="#300604" /><path d="M775.095 719.219h-19.039v-39.01l-45.105-22.955 8.639-16.969 50.305 25.605 5.2 8.484z" fill="#300604" /></svg>